<svg width="2328" height="1856" viewBox="0 0 2328 1856" fill="none" xmlns="http://www.w3.org/2000/svg">
<path d="M1084.5 449.15H834.62V373.55C913.581 318.786 983.541 323.546 1075.57 377.997L1084.5 449.15Z" fill="#E6E6E6"/>
<path d="M776.751 1791.96L722.046 1791.96L713.867 1581.66L776.76 1581.67L776.751 1791.96Z" fill="#FFB8B8"/>
<path d="M790.701 1844.81L614.311 1844.8V1842.58C614.311 1833.59 616.087 1824.69 619.537 1816.39C622.987 1808.09 628.044 1800.55 634.42 1794.19C640.795 1787.84 648.364 1782.8 656.694 1779.36C665.023 1775.92 673.951 1774.15 682.967 1774.15H682.972L790.704 1774.16L790.701 1844.81Z" fill="#2F2E41"/>
<path d="M1084.87 1791.96L1139.58 1791.96L1147.76 1581.66L1084.87 1581.67L1084.87 1791.96Z" fill="#FFB8B8"/>
<path d="M1070.93 1774.16L1178.66 1774.15H1178.66C1187.68 1774.15 1196.61 1775.92 1204.94 1779.36C1213.27 1782.8 1220.84 1787.84 1227.21 1794.19C1233.59 1800.55 1238.64 1808.09 1242.09 1816.39C1245.54 1824.69 1247.32 1833.59 1247.32 1842.58V1844.8L1070.93 1844.81L1070.93 1774.16Z" fill="#2F2E41"/>
<path d="M1086.32 1765.01C1081.76 1764.99 1077.33 1763.43 1073.77 1760.59C1070.21 1757.74 1067.72 1753.78 1066.72 1749.34L931.128 1159.94C930.83 1158.44 930.011 1157.1 928.816 1156.14C927.621 1155.19 926.126 1154.68 924.595 1154.72H924.561C923.023 1154.69 921.525 1155.2 920.333 1156.17C919.14 1157.14 918.33 1158.5 918.045 1160L793.532 1745.43C792.56 1749.91 790.083 1753.93 786.511 1756.81C782.939 1759.69 778.485 1761.28 773.888 1761.29H714.574C711.837 1761.29 709.129 1760.74 706.617 1759.66C704.104 1758.57 701.84 1756.99 699.962 1755.01C698.085 1753.02 696.635 1750.68 695.701 1748.11C694.766 1745.55 694.368 1742.82 694.529 1740.1L738.708 998.09L756.486 992.848L756.819 992.853L1106.02 995.897L1180.39 1737.09C1180.65 1739.73 1180.38 1742.4 1179.59 1744.94C1178.81 1747.48 1177.52 1749.84 1175.81 1751.87C1174.1 1753.91 1172 1755.59 1169.63 1756.81C1167.27 1758.03 1164.68 1758.77 1162.02 1758.98L1087.93 1764.94C1087.39 1764.99 1086.86 1765.01 1086.32 1765.01Z" fill="#2F2E41"/>
<path d="M942.11 313.658C1002.64 313.658 1051.7 264.756 1051.7 204.434C1051.7 144.111 1002.64 95.2104 942.11 95.2104C881.583 95.2104 832.516 144.111 832.516 204.434C832.516 264.756 881.583 313.658 942.11 313.658Z" fill="#FFB8B8"/>
<path d="M874.977 1079.44C855.75 1079.68 836.6 1077 818.185 1071.48C801.807 1066.56 786.613 1058.35 773.539 1047.35C760.464 1036.36 749.785 1022.81 742.159 1007.55C739.743 1002.96 739.207 997.614 740.664 992.636C752.751 951.522 811.16 737.818 773.893 567.932C768.632 544.331 768.195 519.917 772.607 496.145C777.019 472.373 786.19 449.729 799.573 429.566C812.644 409.56 829.624 392.384 849.5 379.06C869.377 365.736 891.742 356.539 915.262 352.017L915.263 352.012C921.445 350.809 927.659 349.823 933.733 349.076C959.732 345.887 986.118 348.464 1011 356.623C1035.88 364.783 1058.65 378.322 1077.67 396.274C1097.26 414.578 1112.54 436.97 1122.42 461.849C1132.31 486.727 1136.56 513.476 1134.86 540.181L1106.21 998.242C1106.02 1001.68 1104.93 1005 1103.05 1007.89C1101.17 1010.77 1098.58 1013.13 1095.51 1014.71C1062.53 1031.94 963.437 1079.44 874.977 1079.44Z" fill="#3F3D56"/>
<path d="M1065.92 124.035C1054.53 95.5207 1033.68 71.7607 1006.84 56.7205C979.998 41.6803 948.793 36.27 918.432 41.3925L952.987 69.2211C910.055 70.6619 864.862 67.5984 834.208 97.5902C843.967 97.3204 856.758 118.123 866.517 117.854C848.271 118.213 831.727 130.99 823.668 147.307C816.204 164.071 814.458 182.811 818.697 200.659C822.3 218.488 849.79 260.256 857.189 276.881C855.916 233.433 941.743 129.798 983.653 140.614C962.36 148.488 943.883 162.469 930.552 180.794C959.064 166.453 991.311 161.195 1022.92 165.732C1030.14 167.381 1037.59 167.797 1044.94 166.96C1049.45 166.071 1053.66 164.045 1057.16 161.075C1060.66 158.105 1063.33 154.29 1064.93 149.995C1066.53 145.7 1067 141.068 1066.29 136.542C1065.58 132.016 1063.72 127.747 1060.88 124.142L1065.92 124.035Z" fill="#2F2E41"/>
<path d="M867.428 1051.94C864.66 1051.93 861.922 1051.36 859.388 1050.25L651.45 959.793C647.033 957.906 643.448 954.492 641.355 950.181C639.262 945.87 638.801 940.95 640.057 936.327L777.713 418.074C780.272 408.431 784.736 399.394 790.843 391.491C796.949 383.588 804.576 376.978 813.278 372.049C821.979 367.12 831.579 363.97 841.517 362.783C851.455 361.597 861.53 362.398 871.153 365.14L926.195 380.796L887.447 1033.09C887.248 1036.31 886.274 1039.43 884.607 1042.19C882.94 1044.96 880.63 1047.28 877.871 1048.96C874.734 1050.9 871.118 1051.93 867.428 1051.94V1051.94Z" fill="#E6E6E6"/>
<path d="M1252.27 936.321L1243.12 901.946L1229.87 851.961L1223.49 827.991L1210.24 778.14L1114.62 418.065C1112.07 408.417 1107.61 399.375 1101.5 391.468C1095.4 383.561 1087.77 376.949 1079.07 372.02C1070.36 367.09 1060.76 363.943 1050.82 362.763C1040.88 361.582 1030.8 362.392 1021.18 365.145L966.161 380.799L993.424 839.598L996.237 887.493L998.021 917.688V917.732L1000.88 965.36L1004.89 1033.09C1005.22 1038.17 1007.47 1042.95 1011.19 1046.44C1014.9 1049.94 1019.81 1051.91 1024.93 1051.94C1027.69 1051.93 1030.42 1051.35 1032.96 1050.25L1240.89 959.801C1245.31 957.914 1248.9 954.498 1250.99 950.183C1253.08 945.868 1253.54 940.944 1252.27 936.321V936.321Z" fill="#E6E6E6"/>
<path d="M1223.49 827.991L996.239 887.493L993.424 839.598L1210.24 778.14L1223.49 827.991Z" fill="#CCCCCC"/>
<path d="M1243.12 901.946L1000.88 965.36L998.024 917.733V917.688L1229.88 851.961L1243.12 901.946Z" fill="#CCCCCC"/>
<path d="M896.109 849.916L893.294 896.921L670.415 830.749L683.485 781.565L896.109 849.916Z" fill="#CCCCCC"/>
<path d="M891.467 927.872L664.033 854.719L650.958 904.036L888.701 974.61L891.467 927.872Z" fill="#CCCCCC"/>
<path d="M667.995 977.029C674.776 975.266 681.086 972.041 686.481 967.584C691.877 963.127 696.226 957.545 699.222 951.232C702.218 944.919 703.79 938.027 703.825 931.043C703.859 924.059 702.358 917.152 699.424 910.809L806.346 576.279L730.528 560.454L632.5 888.436C622.135 894.053 614.197 903.265 610.191 914.325C606.185 925.385 606.389 937.525 610.764 948.445C615.139 959.365 623.382 968.307 633.93 973.575C644.478 978.843 656.599 980.072 667.995 977.029V977.029Z" fill="#FFB8B8"/>
<path d="M809.314 411.82C831.085 414.033 843.331 438.429 837.918 468.805L811.943 614.571C809.996 625.498 800.973 634.15 793.473 632.281L705.612 610.393C698.851 608.709 696.361 599.136 700.192 589.558L752.938 457.688C764.392 429.05 788.207 409.674 809.314 411.82Z" fill="#3F3D56"/>
<path d="M941.706 2.50863e-09C978.798 0.0039649 1014.43 14.3954 1041.06 40.1269C1067.69 65.8583 1083.23 100.909 1084.38 137.858H1111.27C1113.63 137.858 1115.9 138.795 1117.58 140.463C1119.25 142.131 1120.19 144.393 1120.19 146.752V182.328C1120.19 184.687 1119.25 186.949 1117.58 188.617C1115.9 190.285 1113.63 191.222 1111.27 191.222H807.842C805.475 191.222 803.206 190.285 801.532 188.617C799.858 186.949 798.918 184.687 798.918 182.328V142.305C798.918 123.617 802.611 105.112 809.787 87.8468C816.963 70.5816 827.48 54.894 840.74 41.6798C853.999 28.4656 869.74 17.9835 887.064 10.832C904.387 3.68059 922.955 -0.000110957 941.706 2.50863e-09Z" fill="#E6E6E6"/>
<path d="M958.774 879.643H895.699C893.675 879.65 891.722 878.902 890.223 877.547C888.724 876.192 887.787 874.328 887.597 872.32L874.971 743.348H979.502L966.876 872.318C966.687 874.327 965.75 876.192 964.251 877.547C962.752 878.902 960.798 879.65 958.774 879.643V879.643Z" fill="#E6E6E6"/>
<path d="M979.334 759.574H875.138C872.979 759.571 870.91 758.716 869.384 757.195C867.858 755.674 867 753.612 866.997 751.461V731.99C867 729.839 867.858 727.777 869.384 726.256C870.91 724.735 872.979 723.88 875.138 723.877H979.334C981.492 723.88 983.561 724.735 985.087 726.256C986.613 727.777 987.472 729.839 987.474 731.99V751.461C987.472 753.612 986.613 755.674 985.087 757.195C983.561 758.716 981.492 759.571 979.334 759.574Z" fill="#CCCCCC"/>
<path d="M928.585 810.477C931.038 810.76 933.465 811.234 935.843 811.897L1103.82 668.329L1094.01 615.652L1171.84 590.493L1198.31 682.063C1200.45 689.46 1200.13 697.35 1197.38 704.547C1194.64 711.744 1189.63 717.859 1183.1 721.976L970.357 856.145C970.507 865.623 967.759 874.923 962.478 882.806C957.196 890.69 949.631 896.784 940.789 900.279C931.947 903.773 922.247 904.502 912.98 902.368C903.712 900.234 895.316 895.339 888.908 888.333C882.5 881.328 878.384 872.544 877.107 863.15C875.831 853.757 877.454 844.198 881.761 835.746C886.069 827.294 892.856 820.35 901.22 815.836C909.584 811.322 919.129 809.453 928.585 810.478V810.477Z" fill="#FFB8B8"/>
<path d="M1104.26 423.86C1127.52 417.372 1150.75 435.013 1158.54 465.066L1195.9 609.283C1198.7 620.094 1193.26 631.583 1184.77 632.801L1085.23 647.069C1077.57 648.167 1070.82 640.339 1070.54 630.031L1066.68 488.112C1065.84 457.291 1081.71 430.15 1104.26 423.86Z" fill="#3F3D56"/>
<path d="M1516.65 587.698H1453.57C1451.55 587.705 1449.59 586.957 1448.09 585.602C1446.6 584.247 1445.66 582.382 1445.47 580.374L1432.84 451.403H1537.37L1524.75 580.373C1524.56 582.381 1523.62 584.246 1522.12 585.601C1520.62 586.957 1518.67 587.704 1516.65 587.698V587.698Z" fill="#E6E6E6"/>
<path d="M1537.21 467.628H1433.01C1430.85 467.626 1428.78 466.77 1427.26 465.249C1425.73 463.728 1424.87 461.666 1424.87 459.515V440.045C1424.87 437.894 1425.73 435.832 1427.26 434.311C1428.78 432.79 1430.85 431.934 1433.01 431.932H1537.21C1539.36 431.934 1541.43 432.79 1542.96 434.311C1544.49 435.832 1545.34 437.894 1545.35 440.045V459.515C1545.34 461.666 1544.49 463.728 1542.96 465.249C1541.43 466.77 1539.36 467.626 1537.21 467.628V467.628Z" fill="#CCCCCC"/>
<path d="M2136.33 1345.09C2090.5 1284.34 2054.27 1216.96 2028.9 1145.28C2027.43 1140.99 2027.54 1136.32 2029.2 1132.11C2030.86 1127.89 2033.97 1124.39 2037.97 1122.25L2194.79 1038.5C2197.33 1037.14 2200.14 1036.37 2203.03 1036.25C2205.91 1036.13 2208.78 1036.67 2211.42 1037.83C2214.1 1038.99 2216.49 1040.75 2218.39 1042.98C2220.3 1045.2 2221.67 1047.83 2222.4 1050.66C2240.65 1119.72 2274.96 1183.54 2322.55 1236.94C2324.51 1239.12 2325.95 1241.71 2326.75 1244.52C2327.55 1247.33 2327.7 1250.28 2327.19 1253.16C2326.69 1255.99 2325.55 1258.67 2323.86 1261C2322.17 1263.32 2319.96 1265.23 2317.42 1266.58L2160.59 1350.33C2156.58 1352.46 2151.94 1353.1 2147.5 1352.14C2143.06 1351.19 2139.1 1348.69 2136.33 1345.09V1345.09Z" fill="#CCCCCC"/>
<path d="M2147.03 1337.08C2147.87 1338.13 2149.06 1338.85 2150.38 1339.12C2151.7 1339.39 2153.08 1339.2 2154.27 1338.57L2311.09 1254.82C2311.85 1254.43 2312.51 1253.86 2313.02 1253.17C2313.52 1252.48 2313.86 1251.68 2314 1250.83C2314.17 1249.94 2314.12 1249.02 2313.87 1248.15C2313.62 1247.28 2313.17 1246.48 2312.55 1245.82C2263.56 1190.84 2228.24 1125.14 2209.45 1054.04C2209.23 1053.16 2208.81 1052.34 2208.23 1051.65C2207.64 1050.96 2206.9 1050.42 2206.07 1050.06C2205.28 1049.71 2204.42 1049.54 2203.56 1049.58C2202.7 1049.62 2201.86 1049.85 2201.11 1050.26L2044.29 1134.01C2043.1 1134.65 2042.18 1135.68 2041.67 1136.93C2041.17 1138.18 2041.11 1139.56 2041.53 1140.84C2066.44 1211.24 2102.02 1277.41 2147.03 1337.08V1337.08Z" fill="white"/>
<path d="M2205.08 1158.01L2119.67 1195.59C2116.42 1197.01 2112.74 1197.1 2109.43 1195.82C2106.12 1194.54 2103.46 1192.01 2102.02 1188.77L2099.91 1184C2098.48 1180.77 2098.39 1177.1 2099.68 1173.8C2100.96 1170.5 2103.5 1167.84 2106.75 1166.41L2192.16 1128.83C2195.41 1127.41 2199.09 1127.33 2202.4 1128.61C2205.71 1129.88 2208.37 1132.42 2209.81 1135.65L2211.92 1140.42C2213.35 1143.66 2213.44 1147.33 2212.15 1150.63C2210.87 1153.93 2208.33 1156.58 2205.08 1158.01V1158.01Z" fill="#CCCCCC"/>
<path d="M2236.32 1215.83L2150.91 1253.4C2147.66 1254.83 2143.98 1254.91 2140.67 1253.63C2137.36 1252.35 2134.69 1249.82 2133.25 1246.58L2131.14 1241.81C2129.71 1238.58 2129.63 1234.91 2130.91 1231.61C2132.19 1228.31 2134.74 1225.65 2137.98 1224.22L2223.4 1186.65C2226.64 1185.22 2230.33 1185.14 2233.64 1186.42C2236.94 1187.7 2239.61 1190.23 2241.05 1193.46L2243.16 1198.23C2244.59 1201.47 2244.67 1205.14 2243.39 1208.44C2242.11 1211.74 2239.56 1214.39 2236.32 1215.83V1215.83Z" fill="#CCCCCC"/>
<path d="M2036 1167.65C2030.11 1163.88 2025.12 1158.86 2021.38 1152.95C2017.65 1147.04 2015.26 1140.39 2014.38 1133.46C2013.5 1126.53 2014.16 1119.49 2016.31 1112.84C2018.45 1106.19 2022.04 1100.1 2026.8 1094.98L1990.78 585.535L2094.54 595.563L2097.39 1094.46C2105.49 1103.01 2110.16 1114.23 2110.51 1125.98C2110.87 1137.73 2106.88 1149.21 2099.32 1158.23C2091.75 1167.25 2081.13 1173.2 2069.46 1174.93C2057.79 1176.67 2045.89 1174.08 2036 1167.65L2036 1167.65Z" fill="#A0616A"/>
<path d="M2014.27 756.713C2011.84 754.972 2009.83 752.709 2008.39 750.092C2006.96 747.474 2006.13 744.569 2005.97 741.591L1998.37 604.284C1997.62 590.68 2001.95 577.281 2010.52 566.669C2019.09 556.058 2031.31 548.985 2044.8 546.816C2058.3 544.646 2072.12 547.534 2083.61 554.921C2095.09 562.308 2103.43 573.672 2107.01 586.821L2140.4 709.581C2141.79 714.703 2141.08 720.165 2138.44 724.767C2135.79 729.37 2131.42 732.738 2126.28 734.132L2031.28 759.802C2028.39 760.588 2025.36 760.719 2022.42 760.184C2019.48 759.65 2016.69 758.464 2014.27 756.713V756.713Z" fill="#3F3D56"/>
<path d="M1837.43 1793.97H1782.72L1756.7 1583.67H1837.43L1837.43 1793.97Z" fill="#A0616A"/>
<path d="M1743.65 1778.39H1849.15V1844.59H1677.22C1677.22 1835.89 1678.94 1827.29 1682.28 1819.25C1685.61 1811.22 1690.51 1803.92 1696.68 1797.78C1702.84 1791.63 1710.17 1786.75 1718.23 1783.43C1726.29 1780.1 1734.92 1778.39 1743.65 1778.39V1778.39Z" fill="#2F2E41"/>
<path d="M2042.68 1793.97H1987.98L1961.95 1583.67H2042.69L2042.68 1793.97Z" fill="#A0616A"/>
<path d="M1948.9 1778.39H2054.4V1844.59H1882.47C1882.47 1835.89 1884.19 1827.29 1887.53 1819.25C1890.87 1811.22 1895.76 1803.92 1901.93 1797.78C1908.1 1791.63 1915.42 1786.75 1923.48 1783.43C1931.54 1780.1 1940.18 1778.39 1948.9 1778.39Z" fill="#2F2E41"/>
<path d="M1834.84 1688.03L1774.62 1685.16C1769.49 1684.92 1764.64 1682.73 1761.09 1679.04C1757.53 1675.35 1755.53 1670.44 1755.49 1665.32C1739.61 1421.09 1717.63 1159.21 1751.29 1058.05C1751.27 1055.16 1751.87 1052.31 1753.06 1049.68C1754.25 1047.05 1756 1044.71 1758.18 1042.82C1760.36 1040.93 1762.92 1039.52 1765.7 1038.71C1768.47 1037.89 1771.39 1037.69 1774.25 1038.1L2015.18 1072.96C2019.94 1073.62 2024.3 1075.97 2027.46 1079.58C2030.62 1083.19 2032.36 1087.82 2032.37 1092.61C2063.13 1212.4 2064.52 1429.61 2063.36 1655.31C2063.38 1657.95 2062.88 1660.57 2061.88 1663.02C2060.88 1665.46 2059.4 1667.68 2057.53 1669.56C2055.67 1671.43 2053.45 1672.92 2051 1673.94C2048.55 1674.95 2045.93 1675.47 2043.28 1675.47H1978.36C1973.57 1675.49 1968.93 1673.8 1965.29 1670.7C1961.65 1667.59 1959.25 1663.29 1958.52 1658.57L1918.47 1404.79C1917.88 1401.08 1915.97 1397.7 1913.08 1395.29C1910.19 1392.87 1906.52 1391.58 1902.75 1391.65C1898.98 1391.72 1895.36 1393.14 1892.56 1395.66C1889.76 1398.18 1887.98 1401.63 1887.53 1405.36L1855.73 1670.42C1855.13 1675.27 1852.78 1679.74 1849.11 1682.99C1845.43 1686.24 1840.7 1688.04 1835.79 1688.05C1835.48 1688.05 1835.16 1688.04 1834.84 1688.03Z" fill="#2F2E41"/>
<path d="M1877.23 1092.64C1824.14 1063.24 1782.65 1055.51 1762.65 1053.52C1759.99 1053.27 1757.41 1052.47 1755.07 1051.2C1752.72 1049.92 1750.67 1048.18 1749.02 1046.08C1747.34 1043.97 1746.1 1041.54 1745.39 1038.94C1744.67 1036.34 1744.5 1033.63 1744.87 1030.96L1802.59 603.816C1805.92 578.828 1815.6 555.102 1830.73 534.897C1845.85 514.692 1865.91 498.68 1889 488.385C1911.35 478.147 1935.95 473.777 1960.47 475.693C1984.99 477.608 2008.61 485.745 2029.09 499.329C2031.07 500.64 2033.01 501.979 2034.91 503.346C2058.49 520.563 2076.43 544.351 2086.46 571.712C2096.5 599.073 2098.18 628.782 2091.3 657.094C2055.9 801.423 2043.74 1038.04 2041.66 1084C2041.5 1087.92 2040.17 1091.7 2037.85 1094.87C2035.54 1098.04 2032.33 1100.46 2028.64 1101.81C2006.86 1109.7 1983.87 1113.78 1960.7 1113.87C1931.51 1114.05 1902.77 1106.73 1877.23 1092.64Z" fill="#3F3D56"/>
<path d="M1925.52 430.387C1986.05 430.387 2035.12 381.486 2035.12 321.163C2035.12 260.841 1986.05 211.94 1925.52 211.94C1865 211.94 1815.93 260.841 1815.93 321.163C1815.93 381.486 1865 430.387 1925.52 430.387Z" fill="#A0616A"/>
<path d="M2003.08 407.576C1982.63 429.281 1944.66 417.629 1942 387.977C1941.79 385.675 1941.8 383.358 1942.04 381.059C1943.42 367.924 1951.03 356 1949.21 342.132C1948.8 338.68 1947.51 335.391 1945.46 332.575C1929.17 310.832 1890.92 342.3 1875.55 322.617C1866.12 310.548 1877.2 291.545 1869.97 278.056C1860.42 260.252 1832.13 269.034 1814.4 259.284C1794.66 248.436 1795.84 218.259 1808.83 199.904C1824.68 177.52 1852.45 165.575 1879.88 163.854C1907.32 162.133 1934.56 169.523 1960.17 179.469C1989.27 190.771 2018.12 206.39 2036.03 231.889C2057.8 262.899 2059.9 304.589 2049.01 340.849C2042.38 362.906 2019.77 389.852 2003.08 407.576Z" fill="#2F2E41"/>
<path d="M2089.87 513.765C2087.95 504.782 2071.48 492.508 2047.92 482.502C2010.05 467.216 1969.1 461.061 1928.39 464.538C1887.68 468.016 1848.37 481.028 1813.66 502.514C1811.24 502.644 1808.93 503.563 1807.08 505.129C1805.24 506.696 1803.96 508.824 1803.44 511.186L1724.2 860.5L1713.89 905.993L1707.06 936.099L1696.75 981.459L1691.27 1005.7C1690.91 1007.24 1690.9 1008.85 1691.22 1010.41C1691.54 1011.96 1692.2 1013.43 1693.13 1014.72C1694.07 1016 1695.27 1017.07 1696.66 1017.85C1698.05 1018.64 1699.59 1019.12 1701.17 1019.26L2043.37 1048.7C2043.68 1048.7 2044.04 1048.74 2044.35 1048.74C2047.18 1048.73 2049.89 1047.64 2051.94 1045.71C2054 1043.78 2055.24 1041.14 2055.42 1038.34L2058.68 988.93L2062.16 936.099L2063.67 913.197L2067.11 860.5L2089.91 514.343V514.032L2089.87 513.765Z" fill="#E6E6E6"/>
<path d="M1528.38 535.753C1528.93 538.152 1529.28 540.591 1529.45 543.046L1721.13 653.253L1767.72 626.522L1817.39 691.325L1717.72 762.124L1499.04 590.19C1490.12 593.479 1480.4 593.985 1471.19 591.639C1461.98 589.293 1453.7 584.207 1447.45 577.057C1441.21 569.907 1437.3 561.033 1436.24 551.614C1435.18 542.195 1437.02 532.678 1441.52 524.328C1446.02 515.979 1452.97 509.193 1461.43 504.872C1469.9 500.552 1479.48 498.902 1488.91 500.142C1498.34 501.382 1507.16 505.454 1514.21 511.815C1521.26 518.176 1526.2 526.525 1528.38 535.753H1528.38Z" fill="#A0616A"/>
<path d="M1727.97 643.881C1727.65 640.915 1728 637.916 1729 635.104C1730 632.292 1731.62 629.74 1733.74 627.635L1831.3 530.385C1840.96 520.751 1853.87 515.024 1867.52 514.309C1881.17 513.595 1894.6 517.942 1905.23 526.515C1915.85 535.087 1922.92 547.276 1925.06 560.732C1927.2 574.188 1924.27 587.957 1916.83 599.386L1847.35 706.08C1844.45 710.527 1839.9 713.645 1834.69 714.75C1829.48 715.855 1824.05 714.856 1819.58 711.973L1737.01 658.57C1734.5 656.952 1732.38 654.792 1730.82 652.249C1729.25 649.707 1728.28 646.848 1727.97 643.881Z" fill="#3F3D56"/>
<path d="M2067.11 860.5L2063.67 913.197L1713.89 905.993L1724.2 860.5H2067.11Z" fill="#CCCCCC"/>
<path d="M2062.16 936.099L2058.67 988.93L1696.75 981.459L1707.06 936.099H2062.16Z" fill="#CCCCCC"/>
<path d="M1927.67 108.952C1890.58 108.956 1854.94 123.348 1828.31 149.079C1801.68 174.811 1786.14 209.862 1784.99 246.81H1758.11C1755.74 246.81 1753.47 247.747 1751.8 249.415C1750.12 251.083 1749.18 253.345 1749.18 255.704V291.281C1749.18 293.639 1750.12 295.902 1751.8 297.569C1753.47 299.237 1755.74 300.175 1758.11 300.175H2061.53C2063.9 300.175 2066.17 299.237 2067.84 297.569C2069.51 295.902 2070.45 293.639 2070.46 291.281V251.257C2070.46 232.569 2066.76 214.065 2059.59 196.799C2052.41 179.534 2041.89 163.846 2028.63 150.632C2015.37 137.418 1999.63 126.936 1982.31 119.784C1964.99 112.633 1946.42 108.952 1927.67 108.952V108.952Z" fill="#E6E6E6"/>
<path d="M482.42 1538.29C454.179 1548.18 423.858 1550.66 394.378 1545.48C364.898 1540.31 337.252 1527.65 314.103 1508.74C255.149 1459.42 236.666 1378.18 221.626 1302.95L177.142 1080.44L270.274 1144.35C337.249 1190.31 405.733 1237.75 452.106 1304.32C498.479 1370.89 518.721 1461.76 481.462 1533.8" fill="#E6E6E6"/>
<path d="M474.464 1807.68C483.89 1739.25 493.582 1669.95 486.97 1600.78C481.098 1539.36 462.295 1479.37 424.015 1430.18C403.696 1404.12 378.971 1381.79 350.953 1364.19C343.647 1359.6 336.922 1371.14 344.196 1375.71C392.676 1406.25 430.174 1451.34 451.283 1504.48C474.597 1563.58 478.341 1628.01 474.323 1690.79C471.893 1728.75 466.744 1766.47 461.555 1804.14C461.146 1805.84 461.401 1807.63 462.269 1809.16C463.137 1810.68 464.553 1811.82 466.23 1812.34C467.941 1812.8 469.766 1812.57 471.307 1811.7C472.848 1810.82 473.983 1809.38 474.464 1807.68V1807.68Z" fill="#F2F2F2"/>
<path d="M383.668 1686.6C371.556 1704.94 354.908 1719.87 335.327 1729.94C315.745 1740.01 293.892 1744.89 271.871 1744.1C215.277 1741.42 168.096 1702.06 125.624 1664.69L0 1554.15L83.142 1550.18C142.933 1547.33 204.266 1544.67 261.215 1563.04C318.163 1581.42 370.684 1625.64 381.098 1684.39" fill="#E6E6E6"/>
<path d="M501.1 1847.02C455.731 1767.01 403.106 1678.09 309.074 1649.67C282.928 1641.8 255.513 1638.98 228.305 1641.36C219.729 1642.1 221.871 1655.27 230.43 1654.54C276.038 1650.76 321.557 1662.76 359.326 1688.52C395.669 1713.18 423.967 1747.45 447.917 1783.8C462.588 1806.06 475.729 1829.27 488.872 1852.45C493.072 1859.86 505.35 1854.51 501.1 1847.02V1847.02Z" fill="#F2F2F2"/>
</svg>
